<?xml version="1.0" standalone="no"?><!DOCTYPE svg PUBLIC "-//W3C//DTD SVG 1.1//EN" "http://www.w3.org/Graphics/SVG/1.1/DTD/svg11.dtd"><svg t="1736723376511" class="icon" viewBox="0 0 1024 1024" version="1.1" xmlns="http://www.w3.org/2000/svg" p-id="28363" xmlns:xlink="http://www.w3.org/1999/xlink" width="200" height="200"><path d="M850.090667 477.525333h-227.328c-40.277333 0-73.045333 32.768-73.045334 73.045334v297.984c0 40.277333 32.768 73.045333 73.045334 73.045333h227.328c40.277333 0 73.045333-32.768 73.045333-73.045333v-297.984c0-40.277333-32.768-73.045333-73.045333-73.045334z m-38.570667 330.069334h-150.186667c-18.773333 0-34.133333-15.36-34.133333-34.133334s15.36-34.133333 34.133333-34.133333h150.186667c18.773333 0 34.133333 15.36 34.133333 34.133333s-15.36 34.133333-34.133333 34.133334z m0-148.138667h-150.186667c-18.773333 0-34.133333-15.018667-34.133333-34.133333 0-18.773333 15.36-34.133333 34.133333-34.133334h150.186667c18.773333 0 34.133333 15.36 34.133333 34.133334 0 19.114667-15.36 34.133333-34.133333 34.133333zM401.237333 102.4h-227.328c-40.277333 0-73.045333 32.768-73.045333 73.045333v297.984c0 40.277333 32.768 73.045333 73.045333 73.045334h227.328c40.277333 0 73.045333-32.768 73.045334-73.045334V175.445333c0-40.277333-32.768-73.045333-73.045334-73.045333z m-38.912 330.069333h-149.845333c-18.773333 0-34.133333-15.36-34.133333-34.133333s15.36-34.133333 34.133333-34.133333h149.845333c19.114667 0 34.133333 15.36 34.133334 34.133333s-15.018667 34.133333-34.133334 34.133333z m0-148.138666h-149.845333c-18.773333 0-34.133333-15.018667-34.133333-34.133334 0-18.773333 15.36-34.133333 34.133333-34.133333h149.845333c19.114667 0 34.133333 15.36 34.133334 34.133333 0 19.114667-15.018667 34.133333-34.133334 34.133334zM889.7536 246.784a34.133333 34.133333 0 0 0-48.264533 0l-20.923734 20.957867V219.784533a95.914667 95.914667 0 0 0-95.778133-95.778133h-119.159467a34.133333 34.133333 0 1 0 0 68.266667h119.159467c15.189333 0 27.511467 12.322133 27.511467 27.511466v47.957334l-20.923734-20.923734a34.133333 34.133333 0 1 0-48.264533 48.264534l79.189333 79.1552c12.970667 12.970667 34.679467 13.585067 48.298667 0l79.1552-79.189334a34.133333 34.133333 0 0 0 0-48.2304zM418.338133 831.556267H299.144533a27.511467 27.511467 0 0 1-27.511466-27.511467v-47.957333l20.923733 20.923733a34.133333 34.133333 0 1 0 48.264533-48.264533l-79.189333-79.1552a34.304 34.304 0 0 0-48.298667 0L134.178133 728.746667a34.133333 34.133333 0 1 0 48.264534 48.264533l20.923733-20.923733v47.957333a95.914667 95.914667 0 0 0 95.778133 95.778133h119.1936a34.133333 34.133333 0 1 0 0-68.266666z" p-id="28364" fill="#7EBBFF"></path></svg>
