<?xml version="1.0" standalone="no"?><!DOCTYPE svg PUBLIC "-//W3C//DTD SVG 1.1//EN" "http://www.w3.org/Graphics/SVG/1.1/DTD/svg11.dtd"><svg t="1736723011268" class="icon" viewBox="0 0 1024 1024" version="1.1" xmlns="http://www.w3.org/2000/svg" p-id="7964" xmlns:xlink="http://www.w3.org/1999/xlink" width="200" height="200"><path d="M896 341.333333h-213.333333V230.826667l158.293333-157.866667a42.666667 42.666667 0 0 0 8.96-46.506667A42.666667 42.666667 0 0 0 810.666667 0H128a128 128 0 0 0-128 128v426.666667a128 128 0 0 0 128 128h213.333333v110.506666l-158.293333 157.866667a42.666667 42.666667 0 0 0-8.96 46.506667A42.666667 42.666667 0 0 0 213.333333 1024h682.666667a128 128 0 0 0 128-128V469.333333a128 128 0 0 0-128-128zM128 597.333333a42.666667 42.666667 0 0 1-42.666667-42.666666V128a42.666667 42.666667 0 0 1 42.666667-42.666667h579.84l-98.133333 97.706667A42.666667 42.666667 0 0 0 597.333333 213.333333v128h-128a128 128 0 0 0-17.92 0L381.44 155.733333a30.293333 30.293333 0 0 0-5.12-7.68 30.293333 30.293333 0 0 0-4.266667-5.973333 32.426667 32.426667 0 0 0-5.973333-4.693333 46.08 46.08 0 0 0-7.68-4.693334L349.866667 128A51.2 51.2 0 0 0 341.333333 128a58.88 58.88 0 0 0-8.533333 0h-6.4a30.293333 30.293333 0 0 0-7.253333 4.693333 24.746667 24.746667 0 0 0-6.4 4.693334 30.293333 30.293333 0 0 0-4.266667 5.973333 30.293333 30.293333 0 0 0-5.12 7.68l-128 341.333333a42.666667 42.666667 0 0 0 25.173333 55.04A42.666667 42.666667 0 0 0 213.333333 554.666667a42.666667 42.666667 0 0 0 40.106667-27.733334L291.413333 426.666667A42.666667 42.666667 0 0 0 298.666667 426.666667h50.346666A128 128 0 0 0 341.333333 469.333333v128z m231.68-256h-36.693333L341.333333 292.266667zM938.666667 896a42.666667 42.666667 0 0 1-42.666667 42.666667H316.16l98.133333-97.706667A42.666667 42.666667 0 0 0 426.666667 810.666667v-341.333334a42.666667 42.666667 0 0 1 42.666666-42.666666h426.666667a42.666667 42.666667 0 0 1 42.666667 42.666666z" p-id="7965" fill="#7EBBFF"></path><path d="M810.666667 554.666667h-85.333334v-42.666667a42.666667 42.666667 0 0 0-85.333333 0v42.666667h-85.333333a42.666667 42.666667 0 0 0 0 85.333333h5.973333a170.666667 170.666667 0 0 0 54.613333 85.333333A167.253333 167.253333 0 0 0 554.666667 853.333333a42.666667 42.666667 0 0 0 42.666666 42.666667 42.666667 42.666667 0 0 0 42.666667-42.666667 91.733333 91.733333 0 0 1 42.666667-73.813333A91.306667 91.306667 0 0 1 725.333333 853.333333a42.666667 42.666667 0 0 0 42.666667 42.666667 42.666667 42.666667 0 0 0 42.666667-42.666667 165.973333 165.973333 0 0 0-60.586667-128 170.666667 170.666667 0 0 0 54.613333-85.333333H810.666667a42.666667 42.666667 0 0 0 0-85.333333z m-128 116.48a132.266667 132.266667 0 0 1-29.44-31.146667h58.453333a139.093333 139.093333 0 0 1-29.013333 31.146667z" p-id="7966" fill="#7EBBFF"></path></svg>
