<?xml version="1.0" standalone="no"?><!DOCTYPE svg PUBLIC "-//W3C//DTD SVG 1.1//EN" "http://www.w3.org/Graphics/SVG/1.1/DTD/svg11.dtd"><svg t="1736722975081" class="icon" viewBox="0 0 1024 1024" version="1.1" xmlns="http://www.w3.org/2000/svg" p-id="5968" xmlns:xlink="http://www.w3.org/1999/xlink" width="200" height="200"><path d="M17.32377 384.32488C89.587313 108.182022 367.976854-56.252376 637.891568 17.717508c257.373107 70.585641 439.695647 324.176359 371.527322 584.535562-20.760483 79.28798-71.410373 146.887525-140.858453 187.925027a296.277683 296.277683 0 0 1-229.50287 30.884772l-87.250905-23.888774a29.690334 29.690334 0 0 0-36.401942 21.443019c-1.905414 6.967559-1.137561 14.390143 2.132926 20.788922l0.199073 0.483463 0.398147 0.824731 0.255951 0.483464c6.540974 13.935118 19.366971 47.379403 8.531705 88.84349a125.871091 125.871091 0 0 1-57.532132 76.842225 120.865824 120.865824 0 0 1-93.791879 12.570045C105.712236 945.398253-54.968212 660.553056 17.32377 384.32488z m596.280877-273.867737C393.771043 50.251744 166.856124 184.256393 107.958919 409.237459c-58.868766 224.952627 72.092909 457.157204 291.926513 517.419482 7.621657 2.132926 15.755216 1.080683 22.580579-2.957658s11.802192-10.693071 13.792924-18.5138a33.188333 33.188333 0 0 0-2.531073-22.58058 127.179286 127.179286 0 0 1-9.015168-88.815051c17.689069-67.457349 85.430808-107.499486 151.35245-89.412271l87.307783 23.888775a204.305901 204.305901 0 0 0 158.234693-21.272385 212.72385 212.72385 0 0 0 97.147683-129.539724c51.702134-197.508975-85.629881-406.734826-305.150656-466.968665z" fill="#7EBBFF" p-id="5969"></path><path d="M709.671647 505.30446c3.18517-11.603119 10.920583-21.528336 21.528337-27.528969a46.924379 46.924379 0 0 1 35.036869-4.521804l24.286921 6.398779c15.92585 4.180536 28.382139 16.409313 32.647992 32.050773 4.265853 15.64146-0.28439 32.335163-11.944388 43.796087s-28.694968 15.92585-44.620818 11.745314l-24.286921-6.398779a46.071208 46.071208 0 0 1-28.040871-21.13019 44.620818 44.620818 0 0 1-4.607121-34.411211z m-92.31305-226.658968c3.156731-11.631558 10.892144-21.528336 21.499897-27.557408a46.924379 46.924379 0 0 1 35.03687-4.521804l24.28692 6.398779a45.274916 45.274916 0 0 1 32.647992 55.541401c-6.597852 24.173165-31.937016 38.534868-56.565205 32.050773l-24.258482-6.398779a46.071208 46.071208 0 0 1-28.040871-21.13019 44.620818 44.620818 0 0 1-4.607121-34.411211zM385.324655 204.192144c3.18517-11.603119 10.920583-21.499897 21.528336-27.528968a46.924379 46.924379 0 0 1 35.036869-4.521804l24.286921 6.398779a45.274916 45.274916 0 0 1 32.619553 55.541401c-6.597852 24.173165-31.908577 38.534868-56.536767 32.050772l-24.28692-6.341901a46.071208 46.071208 0 0 1-28.06931-21.158629 44.620818 44.620818 0 0 1-4.550243-34.411211z m-184.65454 181.355614c3.156731-11.603119 10.892144-21.528336 21.499897-27.528969a46.924379 46.924379 0 0 1 35.03687-4.550243l24.28692 6.427218c15.92585 4.180536 28.382139 16.409313 32.647992 32.050773 4.265853 15.64146-0.28439 32.335163-11.944387 43.796087s-28.666529 15.92585-44.620818 11.745314l-24.258482-6.37034a46.071208 46.071208 0 0 1-28.06931-21.13019 44.620818 44.620818 0 0 1-4.578682-34.43965z" fill="#7EBBFF" p-id="5970"></path></svg>
