<?xml version="1.0" standalone="no"?><!DOCTYPE svg PUBLIC "-//W3C//DTD SVG 1.1//EN" "http://www.w3.org/Graphics/SVG/1.1/DTD/svg11.dtd"><svg t="1736723717062" class="icon" viewBox="0 0 1024 1024" version="1.1" xmlns="http://www.w3.org/2000/svg" p-id="30719" xmlns:xlink="http://www.w3.org/1999/xlink" width="200" height="200"><path d="M896 256a42.666667 42.666667 0 0 0-42.666667 42.666667v426.666666a128 128 0 0 1-128 128H298.666667a42.666667 42.666667 0 0 0 0 85.333334h426.666666a213.333333 213.333333 0 0 0 213.333334-213.333334V298.666667a42.666667 42.666667 0 0 0-42.666667-42.666667z m-128 384V213.333333a128 128 0 0 0-128-128H213.333333a128 128 0 0 0-128 128v426.666667a128 128 0 0 0 128 128h426.666667a128 128 0 0 0 128-128zM426.666667 170.666667h85.333333v207.36l-15.36-12.8a42.666667 42.666667 0 0 0-54.613333 0l-15.36 12.8zM170.666667 640V213.333333a42.666667 42.666667 0 0 1 42.666666-42.666666h128v298.666666a42.666667 42.666667 0 0 0 70.4 32.426667L469.333333 453.546667l57.6 48.213333A42.666667 42.666667 0 0 0 554.666667 512a45.226667 45.226667 0 0 0 17.92-3.84A42.666667 42.666667 0 0 0 597.333333 469.333333V170.666667h42.666667a42.666667 42.666667 0 0 1 42.666667 42.666666v426.666667a42.666667 42.666667 0 0 1-42.666667 42.666667H213.333333a42.666667 42.666667 0 0 1-42.666666-42.666667z" p-id="30720" fill="#7EBBFF"></path></svg>
