<?xml version="1.0" standalone="no"?><!DOCTYPE svg PUBLIC "-//W3C//DTD SVG 1.1//EN" "http://www.w3.org/Graphics/SVG/1.1/DTD/svg11.dtd"><svg t="1736723120499" class="icon" viewBox="0 0 1024 1024" version="1.1" xmlns="http://www.w3.org/2000/svg" p-id="13388" xmlns:xlink="http://www.w3.org/1999/xlink" width="200" height="200"><path d="M512 42.6496c70.6048 0 128 57.4464 128 128a127.7952 127.7952 0 0 1-85.2992 120.1152v50.5856H640a213.5552 213.5552 0 0 1 213.3504 213.2992v170.7008a213.5552 213.5552 0 0 1-213.3504 213.2992h-256a213.5552 213.5552 0 0 1-213.3504-213.2992v-170.7008A213.5552 213.5552 0 0 1 384 341.3504h85.3504v-50.5856A127.7952 127.7952 0 0 1 384 170.6496c0-70.5536 57.4464-128 128-128z m128 384h-256a128.1536 128.1536 0 0 0-128 128v170.7008c0 70.5536 57.4464 128 128 128h256c70.6048 0 128-57.4464 128-128v-170.7008c0-70.5536-57.3952-128-128-128z m-554.6496 128a42.6496 42.6496 0 0 1 42.6496 42.7008v128a42.6496 42.6496 0 1 1-85.3504 0v-128a42.6496 42.6496 0 0 1 42.7008-42.7008z m853.2992 0a42.6496 42.6496 0 0 1 42.7008 42.7008v128a42.6496 42.6496 0 1 1-85.3504 0v-128a42.6496 42.6496 0 0 1 42.7008-42.7008z m-554.6496 0a42.6496 42.6496 0 0 1 42.7008 42.7008v85.2992a42.6496 42.6496 0 0 1-85.3504 0v-85.2992a42.6496 42.6496 0 0 1 42.6496-42.7008z m256 0a42.6496 42.6496 0 0 1 42.7008 42.7008v85.2992a42.6496 42.6496 0 0 1-85.3504 0v-85.2992a42.6496 42.6496 0 0 1 42.6496-42.7008zM512 128a42.6496 42.6496 0 1 0 0 85.3504 42.6496 42.6496 0 0 0 0-85.3504z" fill="#7EBBFF" p-id="13389"></path></svg>
